<svg xmlns="http://www.w3.org/2000/svg" xmlns:xlink="http://www.w3.org/1999/xlink" xml:space="preserve" version="1.1" style="shape-rendering:geometricPrecision;text-rendering:geometricPrecision;image-rendering:optimizeQuality;" viewBox="0 0 515 643.75" x="0px" y="0px" fill-rule="evenodd" clip-rule="evenodd"><defs><style type="text/css">
   
    .fil0 {fill:black}
   
  </style></defs><g><polygon class="fil0" points="258,173 347,238 313,343 202,343 168,238 "/><path class="fil0" d="M258 0c142,0 257,115 257,258 0,142 -115,257 -257,257 -143,0 -258,-115 -258,-257 0,-143 115,-258 258,-258zm117 385l73 -37 10 42c26,-38 40,-83 40,-132 0,-5 0,-10 0,-15l-30 34 -47 -67 7 -81 41 13c-33,-59 -89,-103 -157,-119l24 42 -79 23 -74 -33 24 -33c-74,16 -136,66 -167,133l41 -13 7 81 -47 67 -24 -27c1,52 19,100 48,139l11 -47 73 37 32 75 -31 6c32,16 69,25 108,25 43,0 85,-11 120,-32l-35 -6 32 -75z"/></g><text x="0" y="530" fill="#000000" font-size="5px" font-weight="bold" font-family="'Helvetica Neue', Helvetica, Arial-Unicode, Arial, Sans-serif">Created by REVA</text><text x="0" y="535" fill="#000000" font-size="5px" font-weight="bold" font-family="'Helvetica Neue', Helvetica, Arial-Unicode, Arial, Sans-serif">from the Noun Project</text></svg>